<?xml version="1.0" encoding="utf-8"?>
<!-- Generator: Adobe Illustrator 24.3.0, SVG Export Plug-In . SVG Version: 6.00 Build 0)  -->
<svg version="1.1" xmlns="http://www.w3.org/2000/svg" xmlns:xlink="http://www.w3.org/1999/xlink" x="0px" y="0px"
	 viewBox="0 0 500 500" style="enable-background:new 0 0 500 500;" xml:space="preserve">
<style type="text/css">
	.st0{fill:none;stroke:#BB8A54;stroke-width:12.0725;stroke-linejoin:round;stroke-miterlimit:10;}
	.st1{fill:none;stroke:#BB8A54;stroke-width:12.0725;stroke-linecap:round;stroke-linejoin:round;stroke-miterlimit:10;}
	.st2{display:none;}
	.st3{display:inline;}
	.st4{fill:none;stroke:#BB8A54;stroke-width:12.0725;stroke-linecap:square;stroke-linejoin:round;stroke-miterlimit:10;}
	.st5{fill:#BB8A54;stroke:#BB8A54;stroke-width:6.0363;stroke-miterlimit:10;}
</style>
<g id="Laag_1">
	<g id="letter">
		<path class="st0" d="M434.8,176.5v235.4c0,13.3-10.8,24.1-24.1,24.1h-326c-13.3,0-24.1-10.8-24.1-24.1V176.5"/>
		<line class="st1" x1="96.8" y1="153.3" x2="60.8" y2="176.2"/>
		<path class="st1" d="M311.2,98.1L260,65.6c-8-5-17.3-5.2-25.6,0L183.5,98"/>
		<line class="st1" x1="434.6" y1="176.2" x2="398.6" y2="153.4"/>
		<path class="st1" d="M434.6,255.2L260,365.8c-8,5-17.3,5.2-25.6,0L60.8,255.2"/>
		<path class="st1" d="M96.8,242.9V122.2c0-13.3,10.8-24.1,24.1-24.1h253.5c13.3,0,24.1,10.8,24.1,24.1v120.7"/>
		<g>
			<line class="st1" x1="169.2" y1="158.4" x2="247.7" y2="158.4"/>
			<line class="st1" x1="169.2" y1="206.7" x2="326.2" y2="206.7"/>
			<line class="st1" x1="169.2" y1="255" x2="326.2" y2="255"/>
		</g>
	</g>
</g>
<g id="Laag_3" class="st2">
	<g id="analysis_x2C_search_x0A_" class="st3">
		<path class="st1" d="M108.9,61.8h241.5c23.3,0,42.3,18.9,42.3,42.3v36.2"/>
		<path class="st4" d="M187.4,436.1h205.2c23.2,0,42.3-19,42.3-42.3H229.6C229.6,417.1,210.6,436.1,187.4,436.1L187.4,436.1
			c-23.2,0-42.3-19-42.3-42.3V104.1c0-23.2-19-42.3-42.3-42.3l0,0c-23.2,0-42.3,19-42.3,42.3h36.2"/>
		<g id="_x3C_Grupo_x3E__1_">
			<circle class="st1" cx="314.1" cy="236.9" r="90.5"/>
			<path class="st4" d="M397.7,280l22.9,22.9c12,12,12,31.7,0,43.8c-12,12-31.7,12-43.8,0l-22.9-22.9"/>
		</g>
		<g>
			<line class="st1" x1="271.9" y1="182.5" x2="320.2" y2="182.5"/>
			<line class="st1" x1="247.7" y1="236.9" x2="320.2" y2="236.9"/>
			<line class="st1" x1="271.9" y1="291.2" x2="320.2" y2="291.2"/>
			<line class="st1" x1="187.4" y1="194.6" x2="229.6" y2="194.6"/>
			<line class="st1" x1="187.4" y1="236.9" x2="217.5" y2="236.9"/>
			<line class="st1" x1="187.4" y1="279.1" x2="229.6" y2="279.1"/>
		</g>
	</g>
</g>
<g id="Laag_2" class="st2">
	<g id="handwritten_x0A_" class="st3">
		<g>
			<path class="st4" d="M333.9,275.5V360l-78.5,78.5H80.4c-6.7,0-12.1-5.4-12.1-12.1V76.3c0-6.7,5.4-12.1,12.1-12.1h241.5
				c6.7,0,12.1,5.4,12.1,12.1v36.2"/>
			<path class="st1" d="M327.9,360h-66.4c-3.3,0-6,2.7-6,6v24.1"/>
			<g>
				<line class="st1" x1="285.6" y1="154.8" x2="116.6" y2="154.8"/>
				<line class="st1" x1="237.4" y1="209.1" x2="116.6" y2="209.1"/>
				<line class="st1" x1="116.6" y1="263.4" x2="195.1" y2="263.4"/>
				<line class="st1" x1="177" y1="317.8" x2="116.6" y2="317.8"/>
			</g>
		</g>
		<g>
			<path class="st1" d="M356,217.6L313.3,175l72.6-72.6c11.8-11.8,30.9-11.8,42.7,0l0,0c11.8,11.8,11.8,30.9,0,42.7L356,217.6z"/>
			<polyline class="st4" points="351.7,213.4 270.6,294.5 228,311.5 219.4,303 236.5,260.3 300.5,196.3 			"/>
			<line class="st1" x1="253.6" y1="277.4" x2="266.4" y2="290.2"/>
			<line class="st1" x1="223.7" y1="307.3" x2="215.2" y2="315.8"/>
			<line class="st1" x1="428.6" y1="102.4" x2="364.5" y2="166.4"/>
			<circle class="st5" cx="364.1" cy="166.8" r="12.1"/>
		</g>
	</g>
</g>
</svg>
